<svg width="641" height="194" viewBox="0 0 641 194" fill="none" xmlns="http://www.w3.org/2000/svg">
<path d="M503.842 11.2748C503.842 5.05855 508.881 0.0192871 515.097 0.0192871H603.265L621.087 18.7784L640.784 37.5376V181.983C640.784 188.199 635.744 193.239 629.528 193.239H515.097C508.881 193.239 503.842 188.199 503.842 181.983V11.2748Z" fill="#C0381D"/>
<path d="M603.266 0.0192871L622.025 19.7164L640.784 37.5376H614.521C608.305 37.5376 603.266 32.4983 603.266 26.2821V0.0192871Z" fill="#9C2F16"/>
<path d="M545.26 89.977H532.61V122.533H540.935V112.766H545.26C551.771 112.766 556.887 108.069 556.887 101.372C556.887 94.6743 551.771 89.977 545.26 89.977ZM545.26 104.86H540.935V97.9299H545.26C547.12 97.9299 548.562 99.3252 548.562 101.372C548.562 103.418 547.12 104.86 545.26 104.86ZM573.388 89.977H560.133V122.533H573.388C582.364 122.533 589.201 115.464 589.201 106.255C589.201 97.0463 582.364 89.977 573.388 89.977ZM573.388 114.487H568.691V98.023H573.388C577.853 98.023 581.062 101.279 581.062 106.255C581.062 111.231 577.853 114.487 573.388 114.487ZM613.06 98.023V89.977H593.062V122.533H601.387V111.371H612.828V103.325H601.387V98.023H613.06Z" fill="white"/>
<path d="M115.371 20.558L115.416 20.6049L115.463 20.6495L134.358 38.645V181.983C134.358 186.772 130.476 190.655 125.686 190.655H11.2555C6.46625 190.655 2.58381 186.772 2.58381 181.983V11.2748C2.58381 6.48555 6.46626 2.6031 11.2555 2.6031H98.3143L115.371 20.558Z" fill="white" stroke="#BF51E5" stroke-width="5.16762"/>
<path d="M116.403 21.5897L130.471 34.9538H110.679C105.89 34.9538 102.008 31.0713 102.008 26.2821V6.47881L116.312 21.4983L116.357 21.5451L116.403 21.5897Z" fill="white" stroke="#BF51E5" stroke-width="5.16762"/>
<path d="M44.7801 132.083H89.5501C95.3233 132.083 98.3209 129.086 98.3209 123.396V91.4765C98.3209 85.7866 95.3233 82.789 89.5501 82.789H44.7801C39.0624 82.789 36.0093 85.7866 36.0093 91.4765V123.396C36.0093 129.086 39.0624 132.083 44.7801 132.083ZM41.5604 92.0039C41.5604 89.5336 42.8372 88.3401 45.1964 88.3401H89.1338C91.4653 88.3401 92.7698 89.5336 92.7698 92.0039V119.232L80.0299 107.297C78.8642 106.243 77.5041 105.687 76.1163 105.687C74.673 105.687 73.3685 106.187 72.175 107.242L60.3233 117.844L55.4938 113.487C54.3836 112.488 53.1623 111.988 51.9411 111.988C50.7198 111.988 49.6651 112.46 48.5826 113.431L41.5604 119.704V92.0039ZM56.6873 108.019C60.1568 108.019 63.0156 105.16 63.0156 101.663C63.0156 98.1934 60.1568 95.3068 56.6873 95.3068C53.1901 95.3068 50.359 98.1934 50.359 101.663C50.359 105.16 53.1901 108.019 56.6873 108.019Z" fill="#BF51E5"/>
<path d="M252.674 38.951C253.166 38.951 253.448 38.6379 253.518 38.1509L253.557 37.9443C254.714 31.8803 254.788 31.4935 261.431 30.3582C261.923 30.2886 262.24 29.9755 262.24 29.4885C262.24 29.0014 261.923 28.7231 261.431 28.6187C254.714 27.4707 254.643 27.088 253.518 20.826C253.448 20.3738 253.166 20.0259 252.674 20.0259C252.181 20.0259 251.865 20.3738 251.795 20.826L251.778 20.9213C250.669 27.1267 250.6 27.5111 243.917 28.6187C243.424 28.6883 243.108 29.0014 243.108 29.4885C243.108 29.9755 243.424 30.2886 243.917 30.3582C250.6 31.5004 250.669 31.885 251.777 38.0903L251.795 38.1857C251.865 38.6379 252.181 38.951 252.674 38.951ZM206.566 48.5528C207.059 48.5528 207.375 48.2049 207.445 47.7526C208.571 41.4558 208.641 41.0732 215.359 39.9251C215.816 39.8555 216.168 39.5424 216.168 39.0554C216.168 38.5684 215.816 38.29 215.359 38.2205C208.634 37.0425 208.571 36.6926 207.459 30.4703L207.445 30.393C207.375 29.9407 207.059 29.5928 206.566 29.5928C206.109 29.5928 205.792 29.9407 205.722 30.393L205.705 30.4879C204.596 36.6936 204.527 37.0782 197.809 38.2205C197.352 38.29 197 38.5684 197 39.0554C197 39.5424 197.352 39.8555 197.809 39.9251C204.496 41.0965 204.561 41.449 205.689 47.5708C205.7 47.6309 205.711 47.6915 205.722 47.7526C205.792 48.2049 206.109 48.5528 206.566 48.5528ZM222.463 77.358C223.096 77.358 223.553 76.9057 223.624 76.2099C224.714 67.4083 225.136 67.1648 234.21 65.7385C234.983 65.5993 235.405 65.2167 235.405 64.5557C235.405 63.9295 234.983 63.512 234.35 63.3728C234.218 63.3481 234.087 63.3238 233.958 63.2998C225.192 61.6673 224.698 61.5754 223.624 52.9014C223.553 52.2056 223.096 51.7533 222.463 51.7533C221.83 51.7533 221.373 52.2056 221.267 52.8666C220.142 61.8073 219.79 62.1204 210.576 63.3728C209.942 63.4772 209.485 63.9295 209.485 64.5557C209.485 65.1819 209.942 65.5993 210.54 65.7385L210.73 65.7742C219.794 67.4783 220.115 67.5385 221.267 76.2795C221.373 76.9057 221.83 77.358 222.463 77.358Z" fill="#5F5F5F"/>
<path d="M252.674 38.951C253.166 38.951 253.448 38.6379 253.518 38.1509L253.557 37.9443C254.714 31.8803 254.788 31.4935 261.431 30.3582C261.923 30.2886 262.24 29.9755 262.24 29.4885C262.24 29.0014 261.923 28.7231 261.431 28.6187C254.714 27.4707 254.643 27.088 253.518 20.826C253.448 20.3738 253.166 20.0259 252.674 20.0259C252.181 20.0259 251.865 20.3738 251.795 20.826L251.778 20.9213C250.669 27.1267 250.6 27.5111 243.917 28.6187C243.424 28.6883 243.108 29.0014 243.108 29.4885C243.108 29.9755 243.424 30.2886 243.917 30.3582C250.6 31.5004 250.669 31.885 251.777 38.0903L251.795 38.1857C251.865 38.6379 252.181 38.951 252.674 38.951ZM206.566 48.5528C207.059 48.5528 207.375 48.2049 207.445 47.7526C208.571 41.4558 208.641 41.0732 215.359 39.9251C215.816 39.8555 216.168 39.5424 216.168 39.0554C216.168 38.5684 215.816 38.29 215.359 38.2205C208.634 37.0425 208.571 36.6926 207.459 30.4703L207.445 30.393C207.375 29.9407 207.059 29.5928 206.566 29.5928C206.109 29.5928 205.792 29.9407 205.722 30.393L205.705 30.4879C204.596 36.6936 204.527 37.0782 197.809 38.2205C197.352 38.29 197 38.5684 197 39.0554C197 39.5424 197.352 39.8555 197.809 39.9251C204.496 41.0965 204.561 41.449 205.689 47.5708C205.7 47.6309 205.711 47.6915 205.722 47.7526C205.792 48.2049 206.109 48.5528 206.566 48.5528ZM222.463 77.358C223.096 77.358 223.553 76.9057 223.624 76.2099C224.714 67.4083 225.136 67.1648 234.21 65.7385C234.983 65.5993 235.405 65.2167 235.405 64.5557C235.405 63.9295 234.983 63.512 234.35 63.3728C234.218 63.3481 234.087 63.3238 233.958 63.2998C225.192 61.6673 224.698 61.5754 223.624 52.9014C223.553 52.2056 223.096 51.7533 222.463 51.7533C221.83 51.7533 221.373 52.2056 221.267 52.8666C220.142 61.8073 219.79 62.1204 210.576 63.3728C209.942 63.4772 209.485 63.9295 209.485 64.5557C209.485 65.1819 209.942 65.5993 210.54 65.7385L210.73 65.7742C219.794 67.4783 220.115 67.5385 221.267 76.2795C221.373 76.9057 221.83 77.358 222.463 77.358Z" stroke="#5F5F5F"/>
<path d="M406.24 48.5532C406.732 48.5532 407.049 48.2053 407.119 47.7531C408.245 41.4563 408.315 41.0736 415.032 39.9256C415.49 39.856 415.841 39.5429 415.841 39.0558C415.841 38.5688 415.49 38.2905 415.032 38.2209C408.308 37.0429 408.245 36.6931 407.133 30.4708L407.119 30.3934C407.049 29.9411 406.732 29.5933 406.24 29.5933C405.783 29.5933 405.466 29.9411 405.396 30.3934L405.379 30.4883C404.27 36.6941 404.201 37.0787 397.483 38.2209C397.026 38.2905 396.674 38.5688 396.674 39.0558C396.674 39.5429 397.026 39.856 397.483 39.9256C404.17 41.0969 404.235 41.4494 405.362 47.5713C405.374 47.6313 405.385 47.6919 405.396 47.7531C405.466 48.2053 405.783 48.5532 406.24 48.5532Z" fill="#5F5F5F"/>
<path d="M406.24 48.5532C406.732 48.5532 407.049 48.2053 407.119 47.7531C408.245 41.4563 408.315 41.0736 415.032 39.9256C415.49 39.856 415.841 39.5429 415.841 39.0558C415.841 38.5688 415.49 38.2905 415.032 38.2209C408.308 37.0429 408.245 36.6931 407.133 30.4708L407.119 30.3934C407.049 29.9411 406.732 29.5933 406.24 29.5933C405.783 29.5933 405.466 29.9411 405.396 30.3934L405.379 30.4883C404.27 36.6941 404.201 37.0787 397.483 38.2209C397.026 38.2905 396.674 38.5688 396.674 39.0558C396.674 39.5429 397.026 39.856 397.483 39.9256C404.17 41.0969 404.235 41.4494 405.362 47.5713C405.374 47.6313 405.385 47.6919 405.396 47.7531C405.466 48.2053 405.783 48.5532 406.24 48.5532Z" stroke="#5F5F5F"/>
<path d="M307.391 66.6626C307.884 66.6626 308.2 66.3147 308.271 65.8624C309.396 59.5656 309.466 59.183 316.184 58.0349C316.641 57.9654 316.993 57.6523 316.993 57.1652C316.993 56.6782 316.641 56.3999 316.184 56.3303C309.459 55.1523 309.396 54.8024 308.284 48.5801L308.271 48.5028C308.2 48.0505 307.884 47.7026 307.391 47.7026C306.934 47.7026 306.618 48.0505 306.547 48.5028L306.53 48.5977C305.421 54.8035 305.353 55.188 298.634 56.3303C298.177 56.3999 297.825 56.6782 297.825 57.1652C297.825 57.6523 298.177 57.9654 298.634 58.0349C305.321 59.2063 305.386 59.5588 306.514 65.6807C306.525 65.7407 306.536 65.8013 306.547 65.8624C306.618 66.3147 306.934 66.6626 307.391 66.6626Z" fill="#5F5F5F"/>
<path d="M307.391 66.6626C307.884 66.6626 308.2 66.3147 308.271 65.8624C309.396 59.5656 309.466 59.183 316.184 58.0349C316.641 57.9654 316.993 57.6523 316.993 57.1652C316.993 56.6782 316.641 56.3999 316.184 56.3303C309.459 55.1523 309.396 54.8024 308.284 48.5801L308.271 48.5028C308.2 48.0505 307.884 47.7026 307.391 47.7026C306.934 47.7026 306.618 48.0505 306.547 48.5028L306.53 48.5977C305.421 54.8035 305.353 55.188 298.634 56.3303C298.177 56.3999 297.825 56.6782 297.825 57.1652C297.825 57.6523 298.177 57.9654 298.634 58.0349C305.321 59.2063 305.386 59.5588 306.514 65.6807C306.525 65.7407 306.536 65.8013 306.547 65.8624C306.618 66.3147 306.934 66.6626 307.391 66.6626Z" stroke="#5F5F5F"/>
<path d="M372.196 124.757C371.825 124.757 371.639 124.968 371.578 125.33C371.558 125.42 371.54 125.507 371.521 125.593C370.589 129.956 370.554 130.119 365.674 131.066C365.334 131.127 365.087 131.338 365.087 131.7C365.087 132.033 365.334 132.244 365.674 132.304C370.554 133.281 370.589 133.445 371.521 137.807C371.54 137.893 371.558 137.981 371.578 138.071C371.639 138.403 371.825 138.644 372.196 138.644C372.567 138.644 372.783 138.403 372.845 138.071C372.87 137.952 372.894 137.837 372.918 137.724C373.832 133.413 373.868 133.246 378.717 132.304C379.057 132.244 379.304 132.033 379.304 131.7C379.304 131.338 379.088 131.127 378.717 131.066C373.836 130.089 373.802 129.925 372.899 125.56C372.881 125.475 372.863 125.388 372.845 125.3C372.783 124.968 372.567 124.757 372.196 124.757ZM347.748 114.643C347.316 114.643 347.068 114.914 347.007 115.337L346.972 115.516C345.955 120.779 345.89 121.115 340.053 122.1C339.62 122.16 339.342 122.432 339.342 122.855C339.342 123.277 339.62 123.519 340.053 123.609C345.956 124.606 346.018 124.938 347.007 130.372C347.068 130.765 347.316 131.066 347.748 131.066C348.181 131.066 348.459 130.765 348.521 130.372L348.536 130.289C349.511 124.904 349.571 124.571 355.444 123.609C355.877 123.549 356.155 123.277 356.155 122.855C356.155 122.432 355.877 122.16 355.444 122.1C349.571 121.109 349.511 120.775 348.536 115.39L348.521 115.307C348.459 114.914 348.181 114.643 347.748 114.643ZM388.267 106.31C387.834 106.31 387.556 106.612 387.495 107.004C386.505 112.469 386.444 112.801 380.54 113.797C380.139 113.858 379.83 114.129 379.83 114.552C379.83 114.975 380.139 115.216 380.54 115.277C386.45 116.299 386.505 116.603 387.482 122.002L387.495 122.07C387.556 122.462 387.834 122.764 388.267 122.764C388.669 122.764 388.947 122.462 389.009 122.07L389.024 121.987C389.998 116.602 390.059 116.268 395.963 115.277C396.365 115.216 396.674 114.975 396.674 114.552C396.674 114.129 396.365 113.858 395.963 113.797C390.086 112.781 390.029 112.475 389.038 107.162L389.009 107.004C388.947 106.612 388.669 106.31 388.267 106.31Z" fill="#5F5F5F"/>
<path d="M372.196 124.757C371.825 124.757 371.639 124.968 371.578 125.33C371.558 125.42 371.54 125.507 371.521 125.593C370.589 129.956 370.554 130.119 365.674 131.066C365.334 131.127 365.087 131.338 365.087 131.7C365.087 132.033 365.334 132.244 365.674 132.304C370.554 133.281 370.589 133.445 371.521 137.807C371.54 137.893 371.558 137.981 371.578 138.071C371.639 138.403 371.825 138.644 372.196 138.644C372.567 138.644 372.783 138.403 372.845 138.071C372.87 137.952 372.894 137.837 372.918 137.724C373.832 133.413 373.868 133.246 378.717 132.304C379.057 132.244 379.304 132.033 379.304 131.7C379.304 131.338 379.088 131.127 378.717 131.066C373.836 130.089 373.802 129.925 372.899 125.56C372.881 125.475 372.863 125.388 372.845 125.3C372.783 124.968 372.567 124.757 372.196 124.757ZM347.748 114.643C347.316 114.643 347.068 114.914 347.007 115.337L346.972 115.516C345.955 120.779 345.89 121.115 340.053 122.1C339.62 122.16 339.342 122.432 339.342 122.855C339.342 123.277 339.62 123.519 340.053 123.609C345.956 124.606 346.018 124.938 347.007 130.372C347.068 130.765 347.316 131.066 347.748 131.066C348.181 131.066 348.459 130.765 348.521 130.372L348.536 130.289C349.511 124.904 349.571 124.571 355.444 123.609C355.877 123.549 356.155 123.277 356.155 122.855C356.155 122.432 355.877 122.16 355.444 122.1C349.571 121.109 349.511 120.775 348.536 115.39L348.521 115.307C348.459 114.914 348.181 114.643 347.748 114.643ZM388.267 106.31C387.834 106.31 387.556 106.612 387.495 107.004C386.505 112.469 386.444 112.801 380.54 113.797C380.139 113.858 379.83 114.129 379.83 114.552C379.83 114.975 380.139 115.216 380.54 115.277C386.45 116.299 386.505 116.603 387.482 122.002L387.495 122.07C387.556 122.462 387.834 122.764 388.267 122.764C388.669 122.764 388.947 122.462 389.009 122.07L389.024 121.987C389.998 116.602 390.059 116.268 395.963 115.277C396.365 115.216 396.674 114.975 396.674 114.552C396.674 114.129 396.365 113.858 395.963 113.797C390.086 112.781 390.029 112.475 389.038 107.162L389.009 107.004C388.947 106.612 388.669 106.31 388.267 106.31Z" stroke="#5F5F5F"/>
<path d="M369.356 30.5307C369.393 30.1547 369.638 29.9102 369.976 29.9102C370.314 29.9102 370.558 30.1547 370.614 30.4931C371.229 35.2174 371.4 35.25 376.24 36.171C376.273 36.1774 376.307 36.1839 376.341 36.1903C376.66 36.2655 376.904 36.4912 376.904 36.8296C376.904 37.1681 376.66 37.4125 376.322 37.4689C371.403 38.1458 371.215 38.315 370.614 43.1473C370.558 43.5046 370.314 43.749 369.976 43.749C369.638 43.749 369.393 43.5046 369.356 43.1285C368.782 38.4404 368.519 38.3907 363.838 37.5084C363.769 37.4954 363.7 37.4823 363.629 37.4689C363.291 37.3937 363.066 37.1681 363.066 36.8296C363.066 36.4724 363.291 36.2656 363.704 36.1903C368.548 35.4194 368.774 35.2878 369.356 30.5307Z" fill="#5F5F5F"/>
<path d="M369.356 30.5307C369.393 30.1547 369.638 29.9102 369.976 29.9102C370.314 29.9102 370.558 30.1547 370.614 30.4931C371.229 35.2174 371.4 35.25 376.24 36.171C376.273 36.1774 376.307 36.1839 376.341 36.1903C376.66 36.2655 376.904 36.4912 376.904 36.8296C376.904 37.1681 376.66 37.4125 376.322 37.4689C371.403 38.1458 371.215 38.315 370.614 43.1473C370.558 43.5046 370.314 43.749 369.976 43.749C369.638 43.749 369.393 43.5046 369.356 43.1285C368.782 38.4404 368.519 38.3907 363.838 37.5084C363.769 37.4954 363.7 37.4823 363.629 37.4689C363.291 37.3937 363.066 37.1681 363.066 36.8296C363.066 36.4724 363.291 36.2656 363.704 36.1903C368.548 35.4194 368.774 35.2878 369.356 30.5307Z" stroke="#5F5F5F"/>
<path d="M308.07 99.7258C308.107 99.3497 308.351 99.1053 308.689 99.1053C309.027 99.1053 309.271 99.3497 309.328 99.6882C309.943 104.413 310.114 104.445 314.954 105.366C314.987 105.373 315.021 105.379 315.055 105.385C315.374 105.461 315.618 105.686 315.618 106.025C315.618 106.363 315.374 106.608 315.036 106.664C310.116 107.341 309.929 107.51 309.328 112.342C309.271 112.7 309.027 112.944 308.689 112.944C308.351 112.944 308.107 112.7 308.07 112.324C307.496 107.635 307.232 107.586 302.552 106.703C302.483 106.691 302.413 106.677 302.343 106.664C302.005 106.589 301.779 106.363 301.779 106.025C301.779 105.667 302.005 105.461 302.418 105.385C307.262 104.614 307.488 104.483 308.07 99.7258Z" fill="#5F5F5F"/>
<path d="M308.07 99.7258C308.107 99.3497 308.351 99.1053 308.689 99.1053C309.027 99.1053 309.271 99.3497 309.328 99.6882C309.943 104.413 310.114 104.445 314.954 105.366C314.987 105.373 315.021 105.379 315.055 105.385C315.374 105.461 315.618 105.686 315.618 106.025C315.618 106.363 315.374 106.608 315.036 106.664C310.116 107.341 309.929 107.51 309.328 112.342C309.271 112.7 309.027 112.944 308.689 112.944C308.351 112.944 308.107 112.7 308.07 112.324C307.496 107.635 307.232 107.586 302.552 106.703C302.483 106.691 302.413 106.677 302.343 106.664C302.005 106.589 301.779 106.363 301.779 106.025C301.779 105.667 302.005 105.461 302.418 105.385C307.262 104.614 307.488 104.483 308.07 99.7258Z" stroke="#5F5F5F"/>
<path d="M248.401 111.941C248.46 111.35 248.843 110.965 249.375 110.965C249.906 110.965 250.289 111.35 250.378 111.881C251.345 119.305 251.613 119.357 259.218 120.804C259.271 120.814 259.324 120.824 259.377 120.834C259.879 120.952 260.263 121.307 260.263 121.839C260.263 122.371 259.879 122.755 259.348 122.843C251.617 123.907 251.322 124.173 250.378 131.767C250.289 132.328 249.906 132.712 249.375 132.712C248.843 132.712 248.46 132.328 248.401 131.737C247.499 124.37 247.085 124.292 239.73 122.905C239.622 122.885 239.512 122.864 239.401 122.843C238.87 122.725 238.516 122.371 238.516 121.839C238.516 121.277 238.87 120.952 239.519 120.834C247.132 119.623 247.486 119.416 248.401 111.941Z" fill="#5F5F5F"/>
<path d="M248.401 111.941C248.46 111.35 248.843 110.965 249.375 110.965C249.906 110.965 250.289 111.35 250.378 111.881C251.345 119.305 251.613 119.357 259.218 120.804C259.271 120.814 259.324 120.824 259.377 120.834C259.879 120.952 260.263 121.307 260.263 121.839C260.263 122.371 259.879 122.755 259.348 122.843C251.617 123.907 251.322 124.173 250.378 131.767C250.289 132.328 249.906 132.712 249.375 132.712C248.843 132.712 248.46 132.328 248.401 131.737C247.499 124.37 247.085 124.292 239.73 122.905C239.622 122.885 239.512 122.864 239.401 122.843C238.87 122.725 238.516 122.371 238.516 121.839C238.516 121.277 238.87 120.952 239.519 120.834C247.132 119.623 247.486 119.416 248.401 111.941Z" stroke="#5F5F5F"/>
<path d="M277.75 84.4604L425.423 84.4605" stroke="#5F5F5F" stroke-width="4" stroke-linecap="round"/>
<path d="M419.677 77.9087L426.229 84.4605L419.677 91.0123" stroke="#5F5F5F" stroke-width="4" stroke-linecap="round" stroke-linejoin="round"/>
</svg>
