<svg width="555" height="420" viewBox="0 0 555 420" fill="none" xmlns="http://www.w3.org/2000/svg">
<rect x="206.5" y="32.5" width="302" height="222" rx="39.5" stroke="#969696" stroke-dasharray="8 20"/>
<path fill-rule="evenodd" clip-rule="evenodd" d="M249.321 71.8695C285.352 68.7914 321.543 52.375 355.688 64.2666C391.638 76.7873 418.508 106.911 440.01 138.282C462.559 171.179 489.091 209.01 481.755 248.193C474.361 287.684 492.053 322.403 466.002 353.025C445.114 377.578 372.208 396.364 343.383 410.842C314.874 425.161 281.082 416.916 249.321 413.812C220.147 410.961 192.287 404.918 165.323 393.44C135.545 380.764 106.902 366.343 84.0463 343.456C56.5679 315.94 16.2823 286.843 20.2755 248.193C24.3856 208.412 77.6933 194.942 102.624 163.639C122.966 138.098 125.273 98.9108 152.969 81.5845C180.797 64.1759 216.6 74.6647 249.321 71.8695Z" fill="#FBFBFB"/>
<path d="M280 81C280 81.5528 279.553 82 279 82C278.447 82 278 81.5528 278 81C278 80.4472 278.447 80 279 80C279.553 80 280 80.4472 280 81Z" fill="#E2E2E2"/>
<path d="M174 252H386V256.203C386 257.196 385.167 258 384.145 258H176.654C175.189 258 174 256.848 174 255.429V252Z" fill="#A8A8A8"/>
<path d="M153.305 76H405.695C408.624 76 411 78.3741 411 81.3V245.168C411 250.595 406.592 255 401.16 255H157.84C152.408 255 148 250.595 148 245.168V81.3C148 78.3741 150.376 76 153.305 76Z" fill="#A8A8A8"/>
<path d="M403 246.258V85.7422C403 85.3323 402.668 85 402.259 85L156.741 85C156.332 85 156 85.3323 156 85.7422V246.258C156 246.668 156.332 247 156.741 247L402.259 247C402.668 247 403 246.668 403 246.258Z" fill="white"/>
<path d="M463.998 316.951V315.566L91 315V316.953C91 321.397 95.3802 325 100.783 325H454.217C459.62 325 464 321.399 464 316.953L463.998 316.951Z" fill="#A8A8A8"/>
<path d="M459.993 317H95.0045C90.9916 317 89.8105 315.096 92.3042 312.805L150.542 259.283C152.141 257.813 154.225 257 156.387 257H398.613C400.775 257 402.859 257.815 404.458 259.283L462.696 312.805C465.19 315.096 464.008 317 459.996 317H459.993Z" fill="white"/>
<g opacity="0.3">
<path d="M176.725 266H160.839C160.158 266 159.822 265.776 160.095 265.502L163.108 262.47C163.365 262.212 164.114 262 164.774 262H180.133C180.793 262 181.154 262.212 180.937 262.47L178.386 265.502C178.156 265.776 177.409 266 176.725 266Z" fill="#D4D4D4"/>
<path d="M196.423 266H180.876C180.209 266 179.844 265.776 180.064 265.502L182.511 262.47C182.72 262.212 183.418 262 184.064 262H199.095C199.741 262 200.13 262.212 199.96 262.47L197.966 265.502C197.786 265.776 197.092 266 196.423 266Z" fill="#D4D4D4"/>
<path d="M216.941 266H200.961C200.276 266 199.862 265.776 200.042 265.502L202.044 262.47C202.214 262.212 202.897 262 203.559 262H219.009C219.673 262 220.108 262.212 219.977 262.47L218.442 265.502C218.304 265.776 217.629 266 216.941 266Z" fill="#D4D4D4"/>
<path d="M257.153 266H241.104C240.415 266 239.923 265.776 240.01 265.502L240.986 262.47C241.07 262.212 241.683 262 242.349 262H257.865C258.533 262 259.042 262.212 258.997 262.47L258.49 265.502C258.443 265.776 257.842 266 257.153 266Z" fill="#D4D4D4"/>
<path d="M236.61 266H221.003C220.334 266 219.892 265.776 220.023 265.502L221.474 262.47C221.598 262.212 222.228 262 222.877 262H237.966C238.615 262 239.075 262.212 238.99 262.47L237.993 265.502C237.904 265.776 237.28 266 236.61 266Z" fill="#D4D4D4"/>
<path d="M296.861 266H281.281C280.613 266 280.06 265.776 280.056 265.502L280 262.47C279.996 262.212 280.522 262 281.167 262H296.23C296.878 262 297.443 262.212 297.486 262.47L297.997 265.502C298.043 265.776 297.534 266 296.865 266H296.861Z" fill="#D4D4D4"/>
<path d="M317.91 266H301.919C301.233 266 300.628 265.776 300.577 265.502L300.003 262.47C299.954 262.212 300.458 262 301.123 262H316.582C317.247 262 317.861 262.212 317.95 262.47L318.988 265.502C319.082 265.776 318.598 266 317.912 266H317.91Z" fill="#D4D4D4"/>
<path d="M337.008 266H321.459C320.792 266 320.166 265.776 320.071 265.502L319.012 262.47C318.921 262.212 319.375 262 320.021 262H335.055C335.701 262 336.333 262.212 336.463 262.47L337.975 265.502C338.111 265.776 337.678 266 337.008 266Z" fill="#D4D4D4"/>
<path d="M358.05 266H342.127C341.444 266 340.765 265.776 340.622 265.502L339.025 262.47C338.89 262.212 339.319 262 339.979 262H355.372C356.034 262 356.717 262.212 356.893 262.47L358.955 265.502C359.141 265.776 358.735 266 358.05 266Z" fill="#D4D4D4"/>
<path d="M394.823 266H362.115C361.159 266 360.157 265.685 359.891 265.3L358.061 262.661C357.809 262.296 358.36 262 359.285 262H390.906C391.83 262 392.881 262.296 393.243 262.661L395.867 265.3C396.249 265.683 395.779 266 394.823 266Z" fill="#D4D4D4"/>
<path d="M276.781 266H261.15C260.48 266 259.963 265.776 260.002 265.502L260.448 262.47C260.486 262.212 261.048 262 261.698 262H276.81C277.46 262 277.992 262.212 277.992 262.47L278 265.502C278 265.776 277.452 266 276.781 266Z" fill="#D4D4D4"/>
<path d="M383.587 272H400.139C400.851 272 401.189 271.718 400.893 271.376L397.624 267.587C397.345 267.263 396.557 267 395.871 267H379.891C379.205 267 378.835 267.263 379.072 267.587L381.84 271.376C382.09 271.718 382.877 272 383.589 272H383.587Z" fill="#D4D4D4"/>
<path d="M362.848 272H379.097C379.796 272 380.167 271.718 379.927 271.376L377.26 267.587C377.032 267.263 376.296 267 375.622 267H359.935C359.261 267 358.86 267.263 359.045 267.587L361.218 271.376C361.415 271.718 362.147 272 362.846 272H362.848Z" fill="#D4D4D4"/>
<path d="M342.283 272H359.005C359.724 272 360.148 271.718 359.952 271.376L357.769 267.587C357.584 267.263 356.865 267 356.171 267H340.027C339.334 267 338.884 267.263 339.026 267.587L340.704 271.376C340.855 271.718 341.568 272 342.285 272H342.283Z" fill="#D4D4D4"/>
<path d="M299.875 272H315.905C316.594 272 317.081 271.718 316.989 271.376L315.97 267.587C315.882 267.263 315.269 267 314.604 267H299.128C298.463 267 297.956 267.263 298.003 267.587L298.537 271.376C298.586 271.718 299.187 272 299.877 272H299.875Z" fill="#D4D4D4"/>
<path d="M320.567 272H336.956C337.66 272 338.116 271.718 337.974 271.376L336.383 267.587C336.247 267.263 335.58 267 334.9 267H319.078C318.398 267 317.919 267.263 318.011 267.587L319.105 271.376C319.203 271.718 319.862 272 320.565 272H320.567Z" fill="#D4D4D4"/>
<path d="M258.198 272H274.65C275.358 272 275.939 271.718 275.943 271.376L276 267.587C276.004 267.263 275.45 267 274.768 267H258.884C258.202 267 257.606 267.263 257.557 267.587L257.003 271.376C256.953 271.718 257.49 272 258.198 272Z" fill="#D4D4D4"/>
<path d="M237.083 272H253.062C253.749 272 254.352 271.718 254.407 271.376L254.996 267.587C255.047 267.263 254.546 267 253.883 267H238.457C237.795 267 237.179 267.263 237.087 267.587L236.013 271.376C235.915 271.718 236.398 272 237.083 272Z" fill="#D4D4D4"/>
<path d="M216.031 272H232.371C233.073 272 233.732 271.718 233.836 271.376L234.987 267.587C235.085 267.263 234.61 267 233.934 267H218.16C217.482 267 216.813 267.263 216.673 267.587L215.028 271.376C214.88 271.718 215.33 272 216.033 272H216.031Z" fill="#D4D4D4"/>
<path d="M194.987 272H211.654C212.371 272 213.083 271.718 213.241 271.376L214.972 267.587C215.119 267.263 214.674 267 213.983 267H197.892C197.201 267 196.48 267.263 196.288 267.587L194.051 271.376C193.849 271.718 194.268 272 194.984 272H194.987Z" fill="#D4D4D4"/>
<path d="M156.191 272H189.695C190.675 272 191.709 271.604 191.991 271.126L193.933 267.825C194.2 267.371 193.645 267 192.698 267H160.352C159.405 267 158.319 267.371 157.934 267.825L155.146 271.126C154.74 271.606 155.209 272 156.189 272H156.191Z" fill="#D4D4D4"/>
<path d="M279.289 272H295.791C296.501 272 297.042 271.718 296.997 271.376L296.501 267.587C296.458 267.263 295.865 267 295.18 267H279.249C278.564 267 278.004 267.263 278.004 267.587L278 271.376C278 271.718 278.579 272 279.289 272Z" fill="#D4D4D4"/>
<path d="M367.017 277H404.837C405.813 277 406.264 276.648 405.842 276.218L403.402 273.742C402.999 273.332 401.896 273 400.95 273H364.295C363.348 273 362.797 273.334 363.07 273.742L364.721 276.218C365.006 276.646 366.042 277 367.017 277Z" fill="#D4D4D4"/>
<path d="M344.515 277H361.974C362.723 277 363.159 276.719 362.946 276.375L360.572 272.586C360.369 272.264 359.615 272 358.891 272H342.062C341.34 272 340.874 272.262 341.03 272.586L342.852 276.375C343.017 276.719 343.767 277 344.517 277H344.515Z" fill="#D4D4D4"/>
<path d="M387.912 277H405.12C405.859 277 406.2 276.719 405.88 276.375L402.34 272.586C402.039 272.264 401.209 272 400.498 272H383.912C383.2 272 382.825 272.262 383.08 272.586L386.076 276.375C386.348 276.719 387.175 277 387.914 277H387.912Z" fill="#D4D4D4"/>
<path d="M300.998 277H317.855C318.579 277 319.088 276.719 318.987 276.375L317.871 272.586C317.776 272.264 317.129 272 316.429 272H300.181C299.484 272 298.954 272.262 299.003 272.586L299.587 276.375C299.641 276.719 300.276 277 301 277H300.998Z" fill="#D4D4D4"/>
<path d="M322.743 277H339.915C340.652 277 341.127 276.719 340.97 276.375L339.234 272.586C339.087 272.264 338.385 272 337.673 272H321.121C320.411 272 319.91 272.262 320.013 272.586L321.207 276.375C321.314 276.719 322.008 277 322.745 277H322.743Z" fill="#D4D4D4"/>
<path d="M347.758 283H365.944C366.725 283 367.171 282.718 366.938 282.375L364.361 278.585C364.141 278.262 363.349 278 362.597 278H345.095C344.343 278 343.865 278.262 344.034 278.585L346.013 282.375C346.192 282.718 346.978 283 347.76 283H347.758Z" fill="#D4D4D4"/>
<path d="M393.258 283H411.103C411.87 283 412.211 282.718 411.864 282.375L408.036 278.585C407.71 278.262 406.843 278 406.105 278H388.931C388.193 278 387.814 278.262 388.09 278.585L391.331 282.375C391.623 282.718 392.493 283 393.258 283Z" fill="#D4D4D4"/>
<path d="M368.086 280H386.383C386.87 280 387.121 279.83 386.942 279.625L385.845 278.366C385.67 278.164 385.134 278 384.653 278H366.649C366.169 278 365.895 278.164 366.038 278.366L366.934 279.625C367.08 279.83 367.599 280 368.086 280Z" fill="#D4D4D4"/>
<path d="M370.214 283H389.359C389.87 283 390.129 282.83 389.936 282.625L388.761 281.365C388.574 281.164 388.01 281 387.508 281H368.676C368.173 281 367.888 281.164 368.041 281.365L368.999 282.625C369.156 282.83 369.701 283 370.212 283H370.214Z" fill="#D4D4D4"/>
<path d="M324.931 283H342.876C343.648 283 344.138 282.718 343.965 282.375L342.073 278.585C341.911 278.262 341.174 278 340.434 278H323.163C322.421 278 321.904 278.262 322.015 278.585L323.316 282.375C323.434 282.718 324.162 283 324.933 283H324.931Z" fill="#D4D4D4"/>
<path d="M257.254 277H274.576C275.32 277 275.932 276.719 275.938 276.375L276 272.586C276.004 272.264 275.423 272 274.705 272H258.009C257.292 272 256.663 272.262 256.612 272.586L256.004 276.375C255.949 276.719 256.512 277 257.256 277H257.254Z" fill="#D4D4D4"/>
<path d="M235.131 277H251.932C252.653 277 253.291 276.719 253.35 276.375L253.996 272.586C254.051 272.264 253.527 272 252.83 272H236.636C235.941 272 235.289 272.262 235.19 272.586L234.014 276.375C233.907 276.719 234.411 277 235.133 277H235.131Z" fill="#D4D4D4"/>
<path d="M215.569 283H318.233C319.991 283 321.221 282.352 320.967 281.568L320.25 279.355C320.008 278.607 318.427 278 316.732 278H217.922C216.227 278 214.544 278.607 214.173 279.355L213.077 281.568C212.689 282.352 213.808 283 215.567 283H215.569Z" fill="#D4D4D4"/>
<path d="M214.071 277H231.187C231.922 277 232.618 276.719 232.731 276.375L233.985 272.586C234.092 272.264 233.6 272 232.89 272H216.391C215.684 272 214.978 272.262 214.827 272.586L213.032 276.375C212.871 276.719 213.338 277 214.073 277H214.071Z" fill="#D4D4D4"/>
<path d="M192.011 277H209.416C210.163 277 210.915 276.719 211.086 276.375L212.968 272.586C213.128 272.264 212.67 272 211.948 272H195.172C194.452 272 193.694 272.262 193.487 272.586L191.057 276.375C190.838 276.719 191.268 277 192.016 277H192.011Z" fill="#D4D4D4"/>
<path d="M190.055 283H208.24C209.022 283 209.808 282.718 209.987 282.375L211.966 278.585C212.135 278.262 211.657 278 210.905 278H193.404C192.652 278 191.86 278.262 191.64 278.585L189.062 282.375C188.828 282.718 189.275 283 190.057 283H190.055Z" fill="#D4D4D4"/>
<path d="M167.951 283H185.582C186.34 283 187.15 282.718 187.381 282.375L189.943 278.585C190.16 278.262 189.742 278 189.013 278H172.045C171.316 278 170.502 278.262 170.236 278.585L167.094 282.375C166.809 282.718 167.195 283 167.953 283H167.951Z" fill="#D4D4D4"/>
<path d="M144.897 283H162.742C163.509 283 164.377 282.718 164.669 282.375L167.91 278.585C168.186 278.262 167.807 278 167.069 278H149.895C149.157 278 148.29 278.262 147.963 278.585L144.136 282.375C143.788 282.718 144.131 283 144.897 283Z" fill="#D4D4D4"/>
<path d="M151.225 277H186.369C187.396 277 188.491 276.605 188.802 276.124L190.924 272.824C191.216 272.369 190.642 272 189.652 272H155.774C154.784 272 153.631 272.369 153.212 272.824L150.166 276.124C149.722 276.605 150.199 277 151.227 277H151.225Z" fill="#D4D4D4"/>
<path d="M279.354 277H296.73C297.476 277 298.046 276.719 297.997 276.375L297.453 272.586C297.406 272.264 296.781 272 296.06 272H279.312C278.593 272 278.004 272.262 278.004 272.586L278 276.375C278 276.719 278.61 277 279.357 277H279.354Z" fill="#D4D4D4"/>
</g>
<path opacity="0.3" d="M346.379 312H197.376C191.945 312 188.835 309.488 190.409 306.518L198.511 291.232C199.76 288.873 204.539 287 209.163 287H336.099C340.724 287 345.39 288.875 346.498 291.232L353.678 306.518C355.073 309.488 351.81 312 346.379 312Z" fill="#D4D4D4"/>
<path d="M307.988 145.52C307.988 146.625 307.092 147.52 305.988 147.52L284 147.52C282.895 147.52 282 148.416 282 149.52L282 183.48C282 184.584 282.895 185.48 284 185.48L305.988 185.48C307.092 185.48 307.988 186.375 307.988 187.48L307.988 196.536C307.988 198.4 310.312 199.251 311.515 197.828L336.908 167.791C337.539 167.046 337.539 165.954 336.908 165.209L311.515 135.172C310.312 133.749 307.988 134.6 307.988 136.464L307.988 145.52Z" fill="#1D1D1D"/>
<path d="M458.499 28.166H448.916" stroke="#272525" stroke-width="1.5" stroke-linecap="round"/>
<path d="M443.166 14.75H455.624C456.514 14.75 456.96 14.75 457.333 14.7992C459.913 15.1389 461.944 17.1693 462.283 19.7495C462.333 20.1231 462.333 20.5682 462.333 21.4583" stroke="#272525" stroke-width="1.5"/>
<path d="M427.834 22.321C427.834 20.6295 427.834 19.7837 427.967 19.0792C428.552 15.9779 430.978 13.552 434.079 12.9669C434.784 12.834 435.629 12.834 437.321 12.834C438.062 12.834 438.433 12.834 438.789 12.8673C440.324 13.0109 441.781 13.6141 442.968 14.5983C443.243 14.8266 443.505 15.0886 444.029 15.6127L445.084 16.6673C446.648 18.2309 447.429 19.0127 448.366 19.5335C448.88 19.8197 449.425 20.0456 449.991 20.207C451.022 20.5007 452.127 20.5007 454.338 20.5007H455.055C460.1 20.5007 462.623 20.5007 464.262 21.9755C464.413 22.1111 464.557 22.2547 464.693 22.4055C466.167 24.0452 466.167 26.5679 466.167 31.6133V35.834C466.167 43.0622 466.167 46.6763 463.922 48.9218C461.676 51.1673 458.062 51.1673 450.834 51.1673H443.167C435.939 51.1673 432.325 51.1673 430.079 48.9218C427.834 46.6763 427.834 43.0622 427.834 35.834V22.321Z" fill="white" stroke="#272525" stroke-width="1.5"/>
<g clip-path="url(#clip0_126_172381)">
<path d="M21.2394 296.593L11.1635 296.593C9.95445 311.694 15.6983 315.98 20.2318 315.98L31.3154 317L42.9018 316.49C45.0848 316.32 50.0554 315.47 52.4736 313.429C54.8917 311.388 55.8321 302.375 56 298.123L55.4967 296.594C49.8544 294.961 44.9169 297.103 43.4056 298.123L37.3603 304.245C35.1772 304.415 30.4081 304.653 28.7961 304.245C27.184 303.837 24.2622 299.144 21.2394 296.593Z" fill="#449968"/>
<path d="M34 272L34 290M34 290L41 283.25M34 290L27 283.25" stroke="#1C274C" stroke-width="1.18987" stroke-linecap="round" stroke-linejoin="round"/>
<path d="M11 297H18.1106C20.1472 297 21.1655 297 22.0606 297.418C22.9558 297.836 23.6185 298.622 24.9439 300.193L26.3061 301.807C27.6315 303.378 28.2942 304.164 29.1894 304.582C30.0845 305 31.1028 305 33.1394 305H33.8606C35.8972 305 36.9155 305 37.8106 304.582C38.7058 304.164 39.3685 303.378 40.6939 301.807L42.0561 300.193C43.3815 298.622 44.0442 297.836 44.9394 297.418C45.8345 297 46.8528 297 48.8894 297H56" stroke="#1C274C" stroke-width="1.18987" stroke-linecap="round"/>
<path d="M44.75 272C48.4066 272.362 50.8679 273.18 52.705 275.029C56 278.345 56 283.682 56 294.356C56 305.031 56 310.368 52.705 313.684C49.4099 317 44.1066 317 33.5 317C22.8934 317 17.5901 317 14.295 313.684C11 310.368 11 305.031 11 294.356C11 283.682 11 278.345 14.295 275.029C16.1321 273.18 18.5934 272.362 22.25 272" stroke="#1C274C" stroke-width="1.18987" stroke-linecap="round"/>
</g>
<path d="M385.381 254.537C386.321 249.656 383.124 244.944 378.242 244.012C373.359 243.08 368.64 246.281 367.701 251.162C366.761 256.043 369.958 260.756 374.84 261.688C379.723 262.62 384.442 259.418 385.381 254.537Z" fill="#D71339" stroke="#D71339"/>
<path d="M540.598 255.362C541.744 250.525 538.75 245.682 533.912 244.545C529.073 243.407 524.221 246.406 523.075 251.243C521.929 256.079 524.923 260.922 529.761 262.06C534.6 263.197 539.452 260.198 540.598 255.362Z" fill="#D71339" stroke="#D71339" stroke-width="0.3"/>
<path d="M377 289.051V117.949C377 113.012 381.022 109 385.996 109H489.193L530.999 150.61V289.051C530.999 293.988 526.977 298 522.004 298H385.996C381.024 298 377 293.99 377 289.051Z" fill="white" stroke="#F33157" stroke-width="2"/>
<rect x="401" y="217" width="105" height="48" rx="6" fill="#F33157"/>
<path d="M426.5 251V231H435.582C437.801 231 439.512 231.567 440.716 232.702C441.919 233.818 442.521 235.378 442.521 237.383C442.521 239.388 441.919 240.957 440.716 242.092C439.512 243.227 437.801 243.794 435.582 243.794H430.872V251H426.5ZM430.872 240.39H434.849C437.162 240.39 438.318 239.388 438.318 237.383C438.318 235.416 437.162 234.433 434.849 234.433H430.872V240.39Z" fill="white"/>
<path d="M445.231 251V231H453.016C456.4 231 459.023 231.87 460.885 233.61C462.747 235.331 463.677 237.79 463.677 240.986C463.677 244.182 462.747 246.65 460.885 248.39C459.023 250.13 456.4 251 453.016 251H445.231ZM449.603 247.397H452.762C456.993 247.397 459.108 245.26 459.108 240.986C459.108 236.73 456.993 234.603 452.762 234.603H449.603V247.397Z" fill="white"/>
<path d="M467.074 251V231H480.5V234.433H471.446V239.312H479.879V242.745H471.446V251H467.074Z" fill="white"/>
<g opacity="0.3">
<path d="M487 158H421C419.895 158 419 158.895 419 160V166C419 167.105 419.895 168 421 168H487C488.105 168 489 167.105 489 166V160C489 158.895 488.105 158 487 158Z" fill="#F33157"/>
<path d="M487 176H421C419.895 176 419 176.895 419 178V184C419 185.105 419.895 186 421 186H487C488.105 186 489 185.105 489 184V178C489 176.895 488.105 176 487 176Z" fill="#F33157"/>
<path d="M487 194H421C419.895 194 419 194.895 419 196V202C419 203.105 419.895 204 421 204H487C488.105 204 489 203.105 489 202V196C489 194.895 488.105 194 487 194Z" fill="#F33157"/>
</g>
<path d="M491 140.425V110.414L529.586 149H499.575C494.84 149 491 145.162 491 140.425Z" fill="white" stroke="#F33157" stroke-width="2"/>
<g filter="url(#filter0_d_126_172381)">
<path d="M531.958 263.052H376.042C371.048 263.052 367 258.999 367 254V301.948C367 306.947 371.048 311 376.042 311H531.958C536.952 311 541 306.947 541 301.948V254C541 258.999 536.952 263.052 531.958 263.052Z" fill="#F33157"/>
</g>
<path d="M96.3815 202.537C97.3208 197.656 94.1242 192.944 89.2418 192.012C84.3594 191.08 79.64 194.281 78.7007 199.162C77.7614 204.043 80.958 208.756 85.8404 209.688C90.7228 210.62 95.4422 207.418 96.3815 202.537Z" fill="#C640A1" stroke="#C640A1"/>
<path d="M251.598 204.362C252.744 199.525 249.75 194.682 244.912 193.545C240.073 192.407 235.221 195.406 234.075 200.243C232.929 205.079 235.923 209.922 240.761 211.06C245.6 212.197 250.452 209.198 251.598 204.362Z" fill="#C640A1" stroke="#C640A1" stroke-width="0.3"/>
<path d="M88 237.051V65.9488C88 61.0118 92.0219 57 96.9958 57H200.193L241.999 98.6098V237.051C241.999 241.988 237.977 246 233.004 246H96.9958C92.0239 246 88 241.99 88 237.051Z" fill="white" stroke="#EE6BCA" stroke-width="2"/>
<rect x="130" y="98" width="70" height="46" rx="4" fill="#FCEDF9"/>
<path opacity="0.4" d="M137 120.226L142.255 115.686C144.989 113.324 149.109 113.459 151.677 115.996L164.547 128.703C166.608 130.739 169.854 131.017 172.239 129.361L173.134 128.74C176.567 126.358 181.211 126.634 184.329 129.406L194 138" stroke="#EE6BCA" stroke-width="4" stroke-linecap="round"/>
<circle opacity="0.4" cx="186" cy="112" r="6" stroke="#EE6BCA" stroke-width="4"/>
<rect x="105" y="166" width="120" height="48" rx="6" fill="#EE6BCA"/>
<path d="M141.307 199.972L141 196.506L143.149 196.396C144.637 196.304 145.381 195.534 145.381 194.085V180.303H149.706V194.03C149.706 197.662 147.753 199.606 143.846 199.862L141.307 199.972Z" fill="white"/>
<path d="M153.67 199.697V180.303H162.655C164.85 180.303 166.543 180.853 167.733 181.953C168.924 183.035 169.519 184.548 169.519 186.492C169.519 188.436 168.924 189.959 167.733 191.059C166.543 192.16 164.85 192.71 162.655 192.71H157.995V199.697H153.67ZM157.995 189.409H161.929C164.217 189.409 165.362 188.436 165.362 186.492C165.362 184.585 164.217 183.631 161.929 183.631H157.995V189.409Z" fill="white"/>
<path d="M181.857 200C179.643 200 177.764 199.587 176.22 198.762C174.695 197.937 173.532 196.781 172.732 195.296C171.932 193.81 171.532 192.068 171.532 190.069C171.532 188.015 171.941 186.236 172.76 184.732C173.597 183.228 174.797 182.063 176.359 181.238C177.922 180.413 179.801 180 181.996 180C183.373 180 184.675 180.193 185.903 180.578C187.149 180.963 188.163 181.476 188.944 182.118L187.549 185.447C186.693 184.823 185.819 184.383 184.926 184.127C184.033 183.851 183.066 183.714 182.024 183.714C180.033 183.714 178.536 184.264 177.531 185.365C176.545 186.447 176.053 188.015 176.053 190.069C176.053 192.141 176.555 193.709 177.559 194.773C178.582 195.837 180.089 196.369 182.08 196.369C183.14 196.369 184.256 196.204 185.428 195.873V192.077H181.187V188.996H189V198.514C188.033 198.991 186.917 199.358 185.652 199.615C184.387 199.872 183.122 200 181.857 200Z" fill="white"/>
<path d="M202 88.4247V58.4142L240.586 97H210.575C205.84 97 202 93.1618 202 88.4247Z" fill="white" stroke="#EE6BCA" stroke-width="2"/>
<g filter="url(#filter1_d_126_172381)">
<path d="M242.958 211.052H87.0424C82.0484 211.052 78 206.999 78 202V249.948C78 254.947 82.0484 259 87.0424 259H242.958C247.952 259 252 254.947 252 249.948V202C252 206.999 247.952 211.052 242.958 211.052Z" fill="#EE6BCA"/>
</g>
<defs>
<filter id="filter0_d_126_172381" x="367" y="252" width="174" height="59" filterUnits="userSpaceOnUse" color-interpolation-filters="sRGB">
<feFlood flood-opacity="0" result="BackgroundImageFix"/>
<feColorMatrix in="SourceAlpha" type="matrix" values="0 0 0 0 0 0 0 0 0 0 0 0 0 0 0 0 0 0 127 0" result="hardAlpha"/>
<feOffset dy="-2"/>
<feComposite in2="hardAlpha" operator="out"/>
<feColorMatrix type="matrix" values="0 0 0 0 0.843137 0 0 0 0 0.0745098 0 0 0 0 0.223529 0 0 0 1 0"/>
<feBlend mode="normal" in2="BackgroundImageFix" result="effect1_dropShadow_126_172381"/>
<feBlend mode="normal" in="SourceGraphic" in2="effect1_dropShadow_126_172381" result="shape"/>
</filter>
<filter id="filter1_d_126_172381" x="78" y="200" width="174" height="59" filterUnits="userSpaceOnUse" color-interpolation-filters="sRGB">
<feFlood flood-opacity="0" result="BackgroundImageFix"/>
<feColorMatrix in="SourceAlpha" type="matrix" values="0 0 0 0 0 0 0 0 0 0 0 0 0 0 0 0 0 0 127 0" result="hardAlpha"/>
<feOffset dy="-2"/>
<feComposite in2="hardAlpha" operator="out"/>
<feColorMatrix type="matrix" values="0 0 0 0 0.776471 0 0 0 0 0.25098 0 0 0 0 0.631373 0 0 0 1 0"/>
<feBlend mode="normal" in2="BackgroundImageFix" result="effect1_dropShadow_126_172381"/>
<feBlend mode="normal" in="SourceGraphic" in2="effect1_dropShadow_126_172381" result="shape"/>
</filter>
<clipPath id="clip0_126_172381">
<rect x="10" y="270" width="47" height="47" fill="white"/>
</clipPath>
</defs>
</svg>
