<svg xmlns="http://www.w3.org/2000/svg" xmlns:xlink="http://www.w3.org/1999/xlink" width="438" zoomAndPan="magnify" viewBox="0 0 328.5 62.249996" height="83" preserveAspectRatio="xMidYMid meet" version="1.0"><defs><g/><clipPath id="a794dd38df"><path d="M 1.753906 6.800781 L 55.519531 6.800781 L 55.519531 61.144531 L 1.753906 61.144531 Z M 1.753906 6.800781 " clip-rule="nonzero"/></clipPath><clipPath id="506067a7fd"><path d="M 9.859375 6.800781 L 63.707031 6.800781 L 63.707031 61.144531 L 9.859375 61.144531 Z M 9.859375 6.800781 " clip-rule="nonzero"/></clipPath><clipPath id="57c515667b"><path d="M 1.753906 0.472656 L 63.707031 0.472656 L 63.707031 40.207031 L 1.753906 40.207031 Z M 1.753906 0.472656 " clip-rule="nonzero"/></clipPath></defs><g clip-path="url(#a794dd38df)"><path fill="#62c2ac" d="M 22.648438 28.46875 C 22.628906 28.46875 22.609375 28.46875 22.609375 28.46875 L 5.035156 28.210938 C 3.199219 28.191406 1.714844 26.667969 1.753906 24.832031 C 1.777344 23.011719 3.277344 21.550781 5.097656 21.550781 C 5.117188 21.550781 5.136719 21.550781 5.136719 21.550781 L 22.707031 21.808594 C 24.546875 21.828125 26.027344 23.347656 25.988281 25.1875 C 25.96875 27.003906 24.46875 28.46875 22.648438 28.46875 Z M 41.089844 61.144531 C 39.90625 61.144531 38.757812 60.507812 38.144531 59.402344 L 29.765625 43.964844 C 28.894531 42.34375 29.488281 40.328125 31.109375 39.4375 C 32.730469 38.570312 34.746094 39.160156 35.636719 40.78125 L 44.015625 56.21875 C 44.886719 57.839844 44.292969 59.859375 42.671875 60.746094 C 42.179688 61.003906 41.625 61.144531 41.089844 61.144531 Z M 42.75 21.808594 L 48.917969 21.707031 L 55.007812 12.0625 C 55.976562 10.5 55.519531 8.445312 53.960938 7.457031 C 52.398438 6.488281 50.34375 6.941406 49.355469 8.503906 L 40.339844 22.816406 C 40.300781 22.894531 40.261719 22.972656 40.222656 23.03125 C 40.816406 22.300781 41.722656 21.828125 42.75 21.808594 " fill-opacity="1" fill-rule="nonzero"/></g><g clip-path="url(#506067a7fd)"><path fill="#6457a4" d="M 42.8125 28.46875 C 40.992188 28.46875 39.511719 27.003906 39.46875 25.1875 C 39.449219 23.347656 40.914062 21.828125 42.75 21.808594 L 60.304688 21.550781 C 62.183594 21.53125 63.664062 22.992188 63.683594 24.832031 C 63.703125 26.667969 62.242188 28.191406 60.402344 28.210938 L 42.851562 28.46875 C 42.832031 28.46875 42.832031 28.46875 42.8125 28.46875 Z M 16.519531 21.707031 L 22.707031 21.808594 C 23.714844 21.828125 24.605469 22.28125 25.199219 22.992188 C 25.179688 22.933594 25.140625 22.894531 25.121094 22.835938 L 16.105469 8.523438 C 15.117188 6.960938 13.0625 6.488281 11.5 7.476562 C 9.9375 8.464844 9.464844 10.519531 10.453125 12.082031 Z M 29.765625 43.964844 C 29.308594 43.09375 29.25 42.125 29.546875 41.277344 C 29.527344 41.296875 29.507812 41.335938 29.507812 41.355469 L 21.445312 56.21875 C 20.574219 57.839844 21.167969 59.878906 22.785156 60.746094 C 23.28125 61.003906 23.835938 61.144531 24.367188 61.144531 C 25.554688 61.144531 26.699219 60.507812 27.3125 59.402344 L 32.730469 49.421875 L 29.765625 43.964844 " fill-opacity="1" fill-rule="nonzero"/></g><g clip-path="url(#57c515667b)"><path fill="#fdb712" d="M 32.710938 22.578125 C 32.175781 22.578125 31.625 22.4375 31.128906 22.183594 C 29.507812 21.3125 28.914062 19.277344 29.785156 17.65625 L 38.164062 2.21875 C 39.035156 0.597656 41.070312 0.00390625 42.691406 0.875 C 44.3125 1.742188 44.90625 3.777344 44.035156 5.402344 L 35.65625 20.839844 C 35.042969 21.945312 33.894531 22.578125 32.710938 22.578125 Z M 19.800781 34.65625 C 20.335938 33.824219 21.148438 33.3125 22.035156 33.152344 C 22.015625 33.152344 21.996094 33.152344 21.996094 33.152344 C 21.996094 33.152344 21.976562 33.152344 21.957031 33.152344 L 5.035156 33.390625 C 3.199219 33.410156 1.734375 34.933594 1.753906 36.769531 C 1.792969 38.589844 3.277344 40.050781 5.097656 40.050781 C 5.097656 40.050781 5.117188 40.050781 5.136719 40.050781 L 16.5 39.894531 Z M 60.421875 33.390625 L 43.503906 33.152344 C 43.503906 33.152344 43.484375 33.152344 43.464844 33.152344 C 43.464844 33.152344 43.464844 33.152344 43.441406 33.152344 C 44.3125 33.3125 45.144531 33.84375 45.65625 34.65625 L 48.957031 39.894531 L 60.324219 40.050781 C 60.324219 40.050781 60.34375 40.050781 60.363281 40.050781 C 62.183594 40.050781 63.683594 38.589844 63.703125 36.769531 C 63.746094 34.933594 62.261719 33.410156 60.421875 33.390625 " fill-opacity="1" fill-rule="nonzero"/></g><path fill="#f0127a" d="M 13.257812 54.640625 C 12.648438 54.640625 12.035156 54.480469 11.480469 54.125 C 9.917969 53.136719 9.464844 51.082031 10.433594 49.519531 L 19.800781 34.65625 C 20.789062 33.09375 22.847656 32.636719 24.410156 33.609375 C 25.96875 34.597656 26.425781 36.652344 25.457031 38.214844 L 16.085938 53.078125 C 15.453125 54.085938 14.367188 54.640625 13.257812 54.640625 Z M 52.199219 54.640625 C 51.09375 54.640625 50.007812 54.085938 49.375 53.078125 L 40.003906 38.214844 C 39.015625 36.652344 39.488281 34.597656 41.050781 33.609375 C 42.613281 32.621094 44.667969 33.09375 45.65625 34.65625 L 55.027344 49.519531 C 56.015625 51.082031 55.539062 53.136719 53.980469 54.125 C 53.425781 54.480469 52.8125 54.640625 52.199219 54.640625 Z M 29.785156 17.65625 L 32.730469 12.238281 L 27.292969 2.21875 C 26.40625 0.597656 24.386719 0.00390625 22.769531 0.875 C 21.148438 1.761719 20.554688 3.777344 21.421875 5.402344 L 29.488281 20.265625 C 29.527344 20.34375 29.566406 20.421875 29.625 20.480469 C 29.269531 19.59375 29.289062 18.566406 29.785156 17.65625 " fill-opacity="1" fill-rule="nonzero"/><g fill="#292a61" fill-opacity="1"><g transform="translate(74.924317, 38.159059)"><g><path d="M 2.375 0 L 2.375 -19.84375 L 10.140625 -19.84375 C 11.753906 -19.84375 13.144531 -19.546875 14.3125 -18.953125 C 15.488281 -18.367188 16.398438 -17.539062 17.046875 -16.46875 C 17.703125 -15.394531 18.03125 -14.128906 18.03125 -12.671875 C 18.03125 -11.234375 17.703125 -9.972656 17.046875 -8.890625 C 16.398438 -7.816406 15.488281 -6.988281 14.3125 -6.40625 C 13.144531 -5.820312 11.753906 -5.53125 10.140625 -5.53125 L 6.890625 -5.53125 L 6.890625 0 Z M 6.859375 -9.40625 L 9.78125 -9.40625 C 10.945312 -9.40625 11.847656 -9.679688 12.484375 -10.234375 C 13.117188 -10.796875 13.4375 -11.597656 13.4375 -12.640625 C 13.4375 -13.679688 13.117188 -14.484375 12.484375 -15.046875 C 11.847656 -15.617188 10.945312 -15.90625 9.78125 -15.90625 L 6.859375 -15.90625 Z M 6.859375 -9.40625 "/></g></g></g><g fill="#292a61" fill-opacity="1"><g transform="translate(96.26299, 38.159059)"><g><path d="M 2.375 0 L 2.375 -19.84375 L 10.234375 -19.84375 C 12.328125 -19.84375 14.15625 -19.425781 15.71875 -18.59375 C 17.289062 -17.757812 18.507812 -16.597656 19.375 -15.109375 C 20.25 -13.617188 20.6875 -11.890625 20.6875 -9.921875 C 20.6875 -7.929688 20.25 -6.195312 19.375 -4.71875 C 18.507812 -3.238281 17.289062 -2.082031 15.71875 -1.25 C 14.15625 -0.414062 12.328125 0 10.234375 0 Z M 6.890625 -4.140625 L 10.140625 -4.140625 C 11.316406 -4.140625 12.347656 -4.378906 13.234375 -4.859375 C 14.117188 -5.335938 14.8125 -6.007812 15.3125 -6.875 C 15.820312 -7.75 16.078125 -8.765625 16.078125 -9.921875 C 16.078125 -11.085938 15.820312 -12.097656 15.3125 -12.953125 C 14.8125 -13.816406 14.113281 -14.488281 13.21875 -14.96875 C 12.320312 -15.457031 11.28125 -15.703125 10.09375 -15.703125 L 6.890625 -15.703125 Z M 6.890625 -4.140625 "/></g></g></g><g fill="#292a61" fill-opacity="1"><g transform="translate(120.633759, 38.159059)"><g><path d="M 2.375 0 L 2.375 -19.84375 L 14.828125 -19.84375 L 14.828125 -15.765625 L 6.890625 -15.765625 L 6.890625 -10.796875 L 14.09375 -10.796875 L 14.09375 -6.828125 L 6.890625 -6.828125 L 6.890625 0 Z M 2.375 0 "/></g></g></g><g fill="#292a61" fill-opacity="1"><g transform="translate(139.195372, 38.159059)"><g/></g></g><g fill="#292a61" fill-opacity="1"><g transform="translate(148.348982, 38.159059)"><g><path d="M 11.625 0.390625 C 9.601562 0.390625 7.804688 -0.046875 6.234375 -0.921875 C 4.671875 -1.796875 3.441406 -3.007812 2.546875 -4.5625 C 1.660156 -6.113281 1.21875 -7.898438 1.21875 -9.921875 C 1.21875 -11.941406 1.65625 -13.722656 2.53125 -15.265625 C 3.414062 -16.816406 4.632812 -18.03125 6.1875 -18.90625 C 7.75 -19.789062 9.53125 -20.234375 11.53125 -20.234375 C 13.132812 -20.234375 14.617188 -19.945312 15.984375 -19.375 C 17.347656 -18.8125 18.503906 -18.015625 19.453125 -16.984375 C 20.410156 -15.960938 21.085938 -14.75 21.484375 -13.34375 L 16.640625 -13.34375 C 16.160156 -14.21875 15.484375 -14.894531 14.609375 -15.375 C 13.734375 -15.851562 12.738281 -16.09375 11.625 -16.09375 C 10.46875 -16.09375 9.445312 -15.828125 8.5625 -15.296875 C 7.675781 -14.773438 6.976562 -14.050781 6.46875 -13.125 C 5.96875 -12.195312 5.71875 -11.128906 5.71875 -9.921875 C 5.71875 -8.734375 5.960938 -7.675781 6.453125 -6.75 C 6.953125 -5.820312 7.644531 -5.085938 8.53125 -4.546875 C 9.414062 -4.003906 10.460938 -3.734375 11.671875 -3.734375 C 13.128906 -3.734375 14.335938 -4.101562 15.296875 -4.84375 C 16.265625 -5.582031 16.890625 -6.554688 17.171875 -7.765625 L 10.75 -7.765625 L 10.75 -11.25 L 21.9375 -11.25 C 22.050781 -9.550781 21.882812 -7.992188 21.4375 -6.578125 C 21 -5.160156 20.320312 -3.925781 19.40625 -2.875 C 18.488281 -1.820312 17.375 -1.015625 16.0625 -0.453125 C 14.75 0.109375 13.269531 0.390625 11.625 0.390625 Z M 11.625 0.390625 "/></g></g></g><g fill="#292a61" fill-opacity="1"><g transform="translate(173.966596, 38.159059)"><g><path d="M 0.25 0 L 8.140625 -19.84375 L 12.5625 -19.84375 L 20.4375 0 L 15.625 0 L 14.28125 -3.421875 L 6.40625 -3.421875 L 5.078125 0 Z M 7.5625 -6.96875 L 13.15625 -6.96875 L 10.34375 -14.234375 Z M 7.5625 -6.96875 "/></g></g></g><g fill="#292a61" fill-opacity="1"><g transform="translate(197.147201, 38.159059)"><g><path d="M 2.375 0 L 2.375 -19.84375 L 10.234375 -19.84375 C 12.328125 -19.84375 14.15625 -19.425781 15.71875 -18.59375 C 17.289062 -17.757812 18.507812 -16.597656 19.375 -15.109375 C 20.25 -13.617188 20.6875 -11.890625 20.6875 -9.921875 C 20.6875 -7.929688 20.25 -6.195312 19.375 -4.71875 C 18.507812 -3.238281 17.289062 -2.082031 15.71875 -1.25 C 14.15625 -0.414062 12.328125 0 10.234375 0 Z M 6.890625 -4.140625 L 10.140625 -4.140625 C 11.316406 -4.140625 12.347656 -4.378906 13.234375 -4.859375 C 14.117188 -5.335938 14.8125 -6.007812 15.3125 -6.875 C 15.820312 -7.75 16.078125 -8.765625 16.078125 -9.921875 C 16.078125 -11.085938 15.820312 -12.097656 15.3125 -12.953125 C 14.8125 -13.816406 14.113281 -14.488281 13.21875 -14.96875 C 12.320312 -15.457031 11.28125 -15.703125 10.09375 -15.703125 L 6.890625 -15.703125 Z M 6.890625 -4.140625 "/></g></g></g><g fill="#292a61" fill-opacity="1"><g transform="translate(221.517977, 38.159059)"><g><path d="M 11.625 0.390625 C 9.601562 0.390625 7.804688 -0.046875 6.234375 -0.921875 C 4.671875 -1.796875 3.441406 -3.007812 2.546875 -4.5625 C 1.660156 -6.113281 1.21875 -7.898438 1.21875 -9.921875 C 1.21875 -11.941406 1.65625 -13.722656 2.53125 -15.265625 C 3.414062 -16.816406 4.632812 -18.03125 6.1875 -18.90625 C 7.75 -19.789062 9.53125 -20.234375 11.53125 -20.234375 C 13.132812 -20.234375 14.617188 -19.945312 15.984375 -19.375 C 17.347656 -18.8125 18.503906 -18.015625 19.453125 -16.984375 C 20.410156 -15.960938 21.085938 -14.75 21.484375 -13.34375 L 16.640625 -13.34375 C 16.160156 -14.21875 15.484375 -14.894531 14.609375 -15.375 C 13.734375 -15.851562 12.738281 -16.09375 11.625 -16.09375 C 10.46875 -16.09375 9.445312 -15.828125 8.5625 -15.296875 C 7.675781 -14.773438 6.976562 -14.050781 6.46875 -13.125 C 5.96875 -12.195312 5.71875 -11.128906 5.71875 -9.921875 C 5.71875 -8.734375 5.960938 -7.675781 6.453125 -6.75 C 6.953125 -5.820312 7.644531 -5.085938 8.53125 -4.546875 C 9.414062 -4.003906 10.460938 -3.734375 11.671875 -3.734375 C 13.128906 -3.734375 14.335938 -4.101562 15.296875 -4.84375 C 16.265625 -5.582031 16.890625 -6.554688 17.171875 -7.765625 L 10.75 -7.765625 L 10.75 -11.25 L 21.9375 -11.25 C 22.050781 -9.550781 21.882812 -7.992188 21.4375 -6.578125 C 21 -5.160156 20.320312 -3.925781 19.40625 -2.875 C 18.488281 -1.820312 17.375 -1.015625 16.0625 -0.453125 C 14.75 0.109375 13.269531 0.390625 11.625 0.390625 Z M 11.625 0.390625 "/></g></g></g><g fill="#292a61" fill-opacity="1"><g transform="translate(247.135591, 38.159059)"><g><path d="M 2.375 0 L 2.375 -19.84375 L 15.421875 -19.84375 L 15.421875 -16.046875 L 6.859375 -16.046875 L 6.859375 -11.9375 L 14.65625 -11.9375 L 14.65625 -8.15625 L 6.859375 -8.15625 L 6.859375 -3.828125 L 15.734375 -3.828125 L 15.734375 0 Z M 2.375 0 "/></g></g></g><g fill="#292a61" fill-opacity="1"><g transform="translate(266.802362, 38.159059)"><g><path d="M 7.140625 0 L 7.140625 -15.625 L 0.84375 -15.625 L 0.84375 -19.84375 L 17.9375 -19.84375 L 17.9375 -15.625 L 11.65625 -15.625 L 11.65625 0 Z M 7.140625 0 "/></g></g></g><g fill="#292a61" fill-opacity="1"><g transform="translate(288.084353, 38.159059)"><g><path d="M 9.296875 0.390625 C 7.628906 0.390625 6.195312 0.117188 5 -0.421875 C 3.800781 -0.972656 2.875 -1.753906 2.21875 -2.765625 C 1.570312 -3.773438 1.25 -4.960938 1.25 -6.328125 L 5.671875 -6.328125 C 5.671875 -5.378906 5.992188 -4.640625 6.640625 -4.109375 C 7.296875 -3.578125 8.171875 -3.3125 9.265625 -3.3125 C 10.210938 -3.3125 10.957031 -3.492188 11.5 -3.859375 C 12.050781 -4.234375 12.328125 -4.75 12.328125 -5.40625 C 12.328125 -6.113281 11.992188 -6.679688 11.328125 -7.109375 C 10.671875 -7.546875 9.644531 -7.914062 8.25 -8.21875 C 5.925781 -8.707031 4.207031 -9.453125 3.09375 -10.453125 C 1.976562 -11.460938 1.421875 -12.769531 1.421875 -14.375 C 1.421875 -16.1875 2.082031 -17.613281 3.40625 -18.65625 C 4.726562 -19.707031 6.53125 -20.234375 8.8125 -20.234375 C 10.382812 -20.234375 11.742188 -19.960938 12.890625 -19.421875 C 14.046875 -18.890625 14.941406 -18.132812 15.578125 -17.15625 C 16.210938 -16.1875 16.53125 -15.03125 16.53125 -13.6875 L 12.1875 -13.6875 C 12.1875 -14.570312 11.894531 -15.269531 11.3125 -15.78125 C 10.726562 -16.289062 9.914062 -16.546875 8.875 -16.546875 C 7.925781 -16.546875 7.175781 -16.363281 6.625 -16 C 6.082031 -15.632812 5.8125 -15.117188 5.8125 -14.453125 C 5.8125 -13.847656 6.113281 -13.335938 6.71875 -12.921875 C 7.320312 -12.503906 8.378906 -12.117188 9.890625 -11.765625 C 12.367188 -11.179688 14.15625 -10.394531 15.25 -9.40625 C 16.34375 -8.425781 16.890625 -7.148438 16.890625 -5.578125 C 16.890625 -3.710938 16.210938 -2.25 14.859375 -1.1875 C 13.515625 -0.132812 11.660156 0.390625 9.296875 0.390625 Z M 9.296875 0.390625 "/></g></g></g><g fill="#292a61" fill-opacity="1"><g transform="translate(93.197858, 53.560478)"><g><path d="M 0.859375 0 L 0.859375 -5.890625 L 2.859375 -5.890625 C 3.296875 -5.890625 3.675781 -5.804688 4 -5.640625 C 4.332031 -5.484375 4.585938 -5.253906 4.765625 -4.953125 C 4.953125 -4.660156 5.046875 -4.316406 5.046875 -3.921875 C 5.046875 -3.515625 4.953125 -3.160156 4.765625 -2.859375 C 4.585938 -2.566406 4.332031 -2.335938 4 -2.171875 C 3.675781 -2.015625 3.296875 -1.9375 2.859375 -1.9375 L 1.59375 -1.9375 L 1.59375 0 Z M 1.59375 -2.625 L 2.84375 -2.625 C 3.800781 -2.625 4.28125 -3.050781 4.28125 -3.90625 C 4.28125 -4.757812 3.800781 -5.1875 2.84375 -5.1875 L 1.59375 -5.1875 Z M 1.59375 -2.625 "/></g></g></g><g fill="#292a61" fill-opacity="1"><g transform="translate(102.537362, 53.560478)"><g><path d="M 0.859375 0 L 0.859375 -5.890625 L 3.109375 -5.890625 C 3.515625 -5.890625 3.867188 -5.8125 4.171875 -5.65625 C 4.472656 -5.507812 4.707031 -5.296875 4.875 -5.015625 C 5.050781 -4.734375 5.140625 -4.394531 5.140625 -4 C 5.140625 -3.519531 5.015625 -3.125 4.765625 -2.8125 C 4.515625 -2.5 4.175781 -2.289062 3.75 -2.1875 L 5.234375 0 L 4.34375 0 L 2.890625 -2.109375 L 1.59375 -2.109375 L 1.59375 0 Z M 1.59375 -2.828125 L 3.03125 -2.828125 C 3.457031 -2.828125 3.785156 -2.925781 4.015625 -3.125 C 4.253906 -3.332031 4.375 -3.625 4.375 -4 C 4.375 -4.375 4.253906 -4.664062 4.015625 -4.875 C 3.785156 -5.082031 3.457031 -5.1875 3.03125 -5.1875 L 1.59375 -5.1875 Z M 1.59375 -2.828125 "/></g></g></g><g fill="#292a61" fill-opacity="1"><g transform="translate(112.230385, 53.560478)"><g><path d="M 3.53125 0.109375 C 2.9375 0.109375 2.410156 -0.0195312 1.953125 -0.28125 C 1.492188 -0.539062 1.132812 -0.898438 0.875 -1.359375 C 0.613281 -1.828125 0.484375 -2.359375 0.484375 -2.953125 C 0.484375 -3.546875 0.613281 -4.070312 0.875 -4.53125 C 1.132812 -4.988281 1.492188 -5.347656 1.953125 -5.609375 C 2.410156 -5.867188 2.9375 -6 3.53125 -6 C 4.132812 -6 4.664062 -5.867188 5.125 -5.609375 C 5.582031 -5.347656 5.941406 -4.988281 6.203125 -4.53125 C 6.460938 -4.070312 6.59375 -3.546875 6.59375 -2.953125 C 6.59375 -2.359375 6.460938 -1.828125 6.203125 -1.359375 C 5.941406 -0.898438 5.582031 -0.539062 5.125 -0.28125 C 4.664062 -0.0195312 4.132812 0.109375 3.53125 0.109375 Z M 1.25 -2.953125 C 1.25 -2.492188 1.34375 -2.085938 1.53125 -1.734375 C 1.726562 -1.390625 2 -1.117188 2.34375 -0.921875 C 2.6875 -0.722656 3.082031 -0.625 3.53125 -0.625 C 3.988281 -0.625 4.390625 -0.722656 4.734375 -0.921875 C 5.078125 -1.117188 5.34375 -1.390625 5.53125 -1.734375 C 5.726562 -2.085938 5.828125 -2.492188 5.828125 -2.953125 C 5.828125 -3.410156 5.726562 -3.8125 5.53125 -4.15625 C 5.34375 -4.5 5.078125 -4.769531 4.734375 -4.96875 C 4.390625 -5.164062 3.988281 -5.265625 3.53125 -5.265625 C 3.082031 -5.265625 2.6875 -5.164062 2.34375 -4.96875 C 2 -4.769531 1.726562 -4.5 1.53125 -4.15625 C 1.34375 -3.8125 1.25 -3.410156 1.25 -2.953125 Z M 1.25 -2.953125 "/></g></g></g><g fill="#292a61" fill-opacity="1"><g transform="translate(123.261723, 53.560478)"><g><path d="M 0.375 0 L 0.375 -0.703125 L 1.21875 -0.703125 C 1.6875 -0.703125 2.007812 -0.816406 2.1875 -1.046875 C 2.363281 -1.273438 2.453125 -1.585938 2.453125 -1.984375 L 2.453125 -5.890625 L 3.203125 -5.890625 L 3.203125 -1.953125 C 3.203125 -1.359375 3.039062 -0.882812 2.71875 -0.53125 C 2.394531 -0.175781 1.894531 0 1.21875 0 Z M 0.375 0 "/></g></g></g><g fill="#292a61" fill-opacity="1"><g transform="translate(131.262912, 53.560478)"><g><path d="M 0.859375 0 L 0.859375 -5.890625 L 4.4375 -5.890625 L 4.4375 -5.203125 L 1.59375 -5.203125 L 1.59375 -3.34375 L 4.234375 -3.34375 L 4.234375 -2.65625 L 1.59375 -2.65625 L 1.59375 -0.6875 L 4.53125 -0.6875 L 4.53125 0 Z M 0.859375 0 "/></g></g></g><g fill="#292a61" fill-opacity="1"><g transform="translate(140.299399, 53.560478)"><g><path d="M 3.46875 0.109375 C 3.039062 0.109375 2.640625 0.0351562 2.265625 -0.109375 C 1.898438 -0.265625 1.582031 -0.476562 1.3125 -0.75 C 1.050781 -1.019531 0.847656 -1.34375 0.703125 -1.71875 C 0.554688 -2.09375 0.484375 -2.503906 0.484375 -2.953125 C 0.484375 -3.390625 0.554688 -3.796875 0.703125 -4.171875 C 0.847656 -4.546875 1.050781 -4.867188 1.3125 -5.140625 C 1.582031 -5.410156 1.898438 -5.617188 2.265625 -5.765625 C 2.640625 -5.921875 3.039062 -6 3.46875 -6 C 3.9375 -6 4.363281 -5.910156 4.75 -5.734375 C 5.144531 -5.566406 5.476562 -5.328125 5.75 -5.015625 C 6.03125 -4.703125 6.234375 -4.328125 6.359375 -3.890625 L 5.578125 -3.890625 C 5.421875 -4.316406 5.15625 -4.648438 4.78125 -4.890625 C 4.414062 -5.140625 3.988281 -5.265625 3.5 -5.265625 C 3.0625 -5.265625 2.671875 -5.164062 2.328125 -4.96875 C 1.992188 -4.769531 1.726562 -4.492188 1.53125 -4.140625 C 1.34375 -3.796875 1.25 -3.398438 1.25 -2.953125 C 1.25 -2.492188 1.34375 -2.085938 1.53125 -1.734375 C 1.726562 -1.390625 1.992188 -1.117188 2.328125 -0.921875 C 2.671875 -0.722656 3.0625 -0.625 3.5 -0.625 C 4 -0.625 4.441406 -0.753906 4.828125 -1.015625 C 5.210938 -1.273438 5.484375 -1.628906 5.640625 -2.078125 L 6.421875 -2.078125 C 6.296875 -1.640625 6.09375 -1.253906 5.8125 -0.921875 C 5.53125 -0.597656 5.1875 -0.34375 4.78125 -0.15625 C 4.382812 0.0195312 3.945312 0.109375 3.46875 0.109375 Z M 3.46875 0.109375 "/></g></g></g><g fill="#292a61" fill-opacity="1"><g transform="translate(151.12873, 53.560478)"><g><path d="M 2.28125 0 L 2.28125 -5.1875 L 0.28125 -5.1875 L 0.28125 -5.890625 L 5.015625 -5.890625 L 5.015625 -5.1875 L 3.03125 -5.1875 L 3.03125 0 Z M 2.28125 0 "/></g></g></g><g fill="#292a61" fill-opacity="1"><g transform="translate(160.392485, 53.560478)"><g/></g></g><g fill="#292a61" fill-opacity="1"><g transform="translate(166.4409, 53.560478)"><g><path d="M 0.859375 0 L 0.859375 -5.890625 L 3.140625 -5.890625 C 3.703125 -5.890625 4.15625 -5.75 4.5 -5.46875 C 4.84375 -5.1875 5.015625 -4.804688 5.015625 -4.328125 C 5.015625 -4.046875 4.945312 -3.796875 4.8125 -3.578125 C 4.675781 -3.359375 4.488281 -3.1875 4.25 -3.0625 C 4.550781 -2.9375 4.78125 -2.75 4.9375 -2.5 C 5.09375 -2.257812 5.171875 -1.976562 5.171875 -1.65625 C 5.171875 -1.144531 5 -0.738281 4.65625 -0.4375 C 4.3125 -0.144531 3.84375 0 3.25 0 Z M 1.59375 -0.6875 L 3.234375 -0.6875 C 3.617188 -0.6875 3.910156 -0.773438 4.109375 -0.953125 C 4.316406 -1.128906 4.421875 -1.375 4.421875 -1.6875 C 4.421875 -2 4.316406 -2.238281 4.109375 -2.40625 C 3.898438 -2.582031 3.601562 -2.671875 3.21875 -2.671875 L 1.59375 -2.671875 Z M 1.59375 -3.34375 L 3.125 -3.34375 C 3.488281 -3.34375 3.765625 -3.421875 3.953125 -3.578125 C 4.148438 -3.742188 4.25 -3.972656 4.25 -4.265625 C 4.25 -4.566406 4.148438 -4.796875 3.953125 -4.953125 C 3.753906 -5.117188 3.476562 -5.203125 3.125 -5.203125 L 1.59375 -5.203125 Z M 1.59375 -3.34375 "/></g></g></g><g fill="#292a61" fill-opacity="1"><g transform="translate(176.049748, 53.560478)"><g><path d="M 2.359375 0 L 2.359375 -2.125 L 0.140625 -5.890625 L 1 -5.890625 L 1.96875 -4.25 L 2.734375 -2.90625 L 4.46875 -5.890625 L 5.296875 -5.890625 L 3.078125 -2.125 L 3.078125 0 Z M 2.359375 0 "/></g></g></g><g fill="#292a61" fill-opacity="1"><g transform="translate(185.44817, 53.560478)"><g/></g></g><g fill="#292a61" fill-opacity="1"><g transform="translate(191.496589, 53.560478)"><g><path d="M 2.078125 0 L 0.15625 -5.890625 L 0.9375 -5.890625 L 1.75 -3.359375 L 2.4375 -1.1875 L 4.1875 -5.890625 L 4.890625 -5.890625 L 6.625 -1.171875 L 8.140625 -5.890625 L 8.921875 -5.890625 L 7 0 L 6.3125 0 L 5.515625 -2.140625 L 4.53125 -4.78125 L 2.765625 0 Z M 2.078125 0 "/></g></g></g><g fill="#292a61" fill-opacity="1"><g transform="translate(204.531209, 53.560478)"><g><path d="M 0.859375 0 L 0.859375 -5.890625 L 4.4375 -5.890625 L 4.4375 -5.203125 L 1.59375 -5.203125 L 1.59375 -3.34375 L 4.234375 -3.34375 L 4.234375 -2.65625 L 1.59375 -2.65625 L 1.59375 -0.6875 L 4.53125 -0.6875 L 4.53125 0 Z M 0.859375 0 "/></g></g></g><g fill="#292a61" fill-opacity="1"><g transform="translate(213.567695, 53.560478)"><g><path d="M 0.859375 0 L 0.859375 -5.890625 L 3.140625 -5.890625 C 3.703125 -5.890625 4.15625 -5.75 4.5 -5.46875 C 4.84375 -5.1875 5.015625 -4.804688 5.015625 -4.328125 C 5.015625 -4.046875 4.945312 -3.796875 4.8125 -3.578125 C 4.675781 -3.359375 4.488281 -3.1875 4.25 -3.0625 C 4.550781 -2.9375 4.78125 -2.75 4.9375 -2.5 C 5.09375 -2.257812 5.171875 -1.976562 5.171875 -1.65625 C 5.171875 -1.144531 5 -0.738281 4.65625 -0.4375 C 4.3125 -0.144531 3.84375 0 3.25 0 Z M 1.59375 -0.6875 L 3.234375 -0.6875 C 3.617188 -0.6875 3.910156 -0.773438 4.109375 -0.953125 C 4.316406 -1.128906 4.421875 -1.375 4.421875 -1.6875 C 4.421875 -2 4.316406 -2.238281 4.109375 -2.40625 C 3.898438 -2.582031 3.601562 -2.671875 3.21875 -2.671875 L 1.59375 -2.671875 Z M 1.59375 -3.34375 L 3.125 -3.34375 C 3.488281 -3.34375 3.765625 -3.421875 3.953125 -3.578125 C 4.148438 -3.742188 4.25 -3.972656 4.25 -4.265625 C 4.25 -4.566406 4.148438 -4.796875 3.953125 -4.953125 C 3.753906 -5.117188 3.476562 -5.203125 3.125 -5.203125 L 1.59375 -5.203125 Z M 1.59375 -3.34375 "/></g></g></g><g fill="#292a61" fill-opacity="1"><g transform="translate(223.176544, 53.560478)"><g><path d="M 0.859375 0 L 0.859375 -5.890625 L 4.234375 -5.890625 L 4.234375 -5.203125 L 1.59375 -5.203125 L 1.59375 -3.171875 L 4.015625 -3.171875 L 4.015625 -2.484375 L 1.59375 -2.484375 L 1.59375 0 Z M 0.859375 0 "/></g></g></g><g fill="#292a61" fill-opacity="1"><g transform="translate(231.834262, 53.560478)"><g><path d="M 0.140625 0 L 2.5625 -5.890625 L 3.265625 -5.890625 L 5.6875 0 L 4.90625 0 L 4.34375 -1.34375 L 1.46875 -1.34375 L 0.9375 0 Z M 1.765625 -2.03125 L 4.0625 -2.03125 L 2.90625 -4.859375 Z M 1.765625 -2.03125 "/></g></g></g><g fill="#292a61" fill-opacity="1"><g transform="translate(241.61987, 53.560478)"><g><path d="M 0.859375 0 L 0.859375 -5.890625 L 1.59375 -5.890625 L 1.59375 -0.703125 L 4.46875 -0.703125 L 4.46875 0 Z M 0.859375 0 "/></g></g></g><g fill="#292a61" fill-opacity="1"><g transform="translate(250.302829, 53.560478)"><g><path d="M 3.46875 0.109375 C 3.039062 0.109375 2.640625 0.0351562 2.265625 -0.109375 C 1.898438 -0.265625 1.582031 -0.476562 1.3125 -0.75 C 1.050781 -1.019531 0.847656 -1.34375 0.703125 -1.71875 C 0.554688 -2.09375 0.484375 -2.503906 0.484375 -2.953125 C 0.484375 -3.390625 0.554688 -3.796875 0.703125 -4.171875 C 0.847656 -4.546875 1.050781 -4.867188 1.3125 -5.140625 C 1.582031 -5.410156 1.898438 -5.617188 2.265625 -5.765625 C 2.640625 -5.921875 3.039062 -6 3.46875 -6 C 3.9375 -6 4.363281 -5.910156 4.75 -5.734375 C 5.144531 -5.566406 5.476562 -5.328125 5.75 -5.015625 C 6.03125 -4.703125 6.234375 -4.328125 6.359375 -3.890625 L 5.578125 -3.890625 C 5.421875 -4.316406 5.15625 -4.648438 4.78125 -4.890625 C 4.414062 -5.140625 3.988281 -5.265625 3.5 -5.265625 C 3.0625 -5.265625 2.671875 -5.164062 2.328125 -4.96875 C 1.992188 -4.769531 1.726562 -4.492188 1.53125 -4.140625 C 1.34375 -3.796875 1.25 -3.398438 1.25 -2.953125 C 1.25 -2.492188 1.34375 -2.085938 1.53125 -1.734375 C 1.726562 -1.390625 1.992188 -1.117188 2.328125 -0.921875 C 2.671875 -0.722656 3.0625 -0.625 3.5 -0.625 C 4 -0.625 4.441406 -0.753906 4.828125 -1.015625 C 5.210938 -1.273438 5.484375 -1.628906 5.640625 -2.078125 L 6.421875 -2.078125 C 6.296875 -1.640625 6.09375 -1.253906 5.8125 -0.921875 C 5.53125 -0.597656 5.1875 -0.34375 4.78125 -0.15625 C 4.382812 0.0195312 3.945312 0.109375 3.46875 0.109375 Z M 3.46875 0.109375 "/></g></g></g><g fill="#292a61" fill-opacity="1"><g transform="translate(261.13216, 53.560478)"><g><path d="M 3.53125 0.109375 C 2.9375 0.109375 2.410156 -0.0195312 1.953125 -0.28125 C 1.492188 -0.539062 1.132812 -0.898438 0.875 -1.359375 C 0.613281 -1.828125 0.484375 -2.359375 0.484375 -2.953125 C 0.484375 -3.546875 0.613281 -4.070312 0.875 -4.53125 C 1.132812 -4.988281 1.492188 -5.347656 1.953125 -5.609375 C 2.410156 -5.867188 2.9375 -6 3.53125 -6 C 4.132812 -6 4.664062 -5.867188 5.125 -5.609375 C 5.582031 -5.347656 5.941406 -4.988281 6.203125 -4.53125 C 6.460938 -4.070312 6.59375 -3.546875 6.59375 -2.953125 C 6.59375 -2.359375 6.460938 -1.828125 6.203125 -1.359375 C 5.941406 -0.898438 5.582031 -0.539062 5.125 -0.28125 C 4.664062 -0.0195312 4.132812 0.109375 3.53125 0.109375 Z M 1.25 -2.953125 C 1.25 -2.492188 1.34375 -2.085938 1.53125 -1.734375 C 1.726562 -1.390625 2 -1.117188 2.34375 -0.921875 C 2.6875 -0.722656 3.082031 -0.625 3.53125 -0.625 C 3.988281 -0.625 4.390625 -0.722656 4.734375 -0.921875 C 5.078125 -1.117188 5.34375 -1.390625 5.53125 -1.734375 C 5.726562 -2.085938 5.828125 -2.492188 5.828125 -2.953125 C 5.828125 -3.410156 5.726562 -3.8125 5.53125 -4.15625 C 5.34375 -4.5 5.078125 -4.769531 4.734375 -4.96875 C 4.390625 -5.164062 3.988281 -5.265625 3.53125 -5.265625 C 3.082031 -5.265625 2.6875 -5.164062 2.34375 -4.96875 C 2 -4.769531 1.726562 -4.5 1.53125 -4.15625 C 1.34375 -3.8125 1.25 -3.410156 1.25 -2.953125 Z M 1.25 -2.953125 "/></g></g></g><g fill="#292a61" fill-opacity="1"><g transform="translate(272.163492, 53.560478)"><g><path d="M 0.859375 0 L 0.859375 -5.890625 L 1.5625 -5.890625 L 4.8125 -1.28125 L 4.8125 -5.890625 L 5.546875 -5.890625 L 5.546875 0 L 4.84375 0 L 1.59375 -4.609375 L 1.59375 0 Z M 0.859375 0 "/></g></g></g><g fill="#292a61" fill-opacity="1"><g transform="translate(282.52147, 53.560478)"><g><path d="M 2.828125 0.109375 C 2.347656 0.109375 1.9375 0.03125 1.59375 -0.125 C 1.25 -0.289062 0.984375 -0.515625 0.796875 -0.796875 C 0.609375 -1.085938 0.507812 -1.425781 0.5 -1.8125 L 1.25 -1.8125 C 1.257812 -1.4375 1.40625 -1.140625 1.6875 -0.921875 C 1.976562 -0.703125 2.359375 -0.59375 2.828125 -0.59375 C 3.234375 -0.59375 3.554688 -0.675781 3.796875 -0.84375 C 4.046875 -1.007812 4.171875 -1.238281 4.171875 -1.53125 C 4.171875 -1.800781 4.050781 -2.019531 3.8125 -2.1875 C 3.582031 -2.351562 3.203125 -2.5 2.671875 -2.625 C 1.941406 -2.789062 1.410156 -3.007812 1.078125 -3.28125 C 0.742188 -3.5625 0.578125 -3.925781 0.578125 -4.375 C 0.578125 -4.875 0.765625 -5.269531 1.140625 -5.5625 C 1.515625 -5.851562 2.023438 -6 2.671875 -6 C 3.335938 -6 3.863281 -5.832031 4.25 -5.5 C 4.632812 -5.175781 4.828125 -4.726562 4.828125 -4.15625 L 4.09375 -4.15625 C 4.09375 -4.507812 3.960938 -4.785156 3.703125 -4.984375 C 3.453125 -5.191406 3.109375 -5.296875 2.671875 -5.296875 C 2.253906 -5.296875 1.925781 -5.210938 1.6875 -5.046875 C 1.445312 -4.878906 1.328125 -4.65625 1.328125 -4.375 C 1.328125 -4.132812 1.4375 -3.929688 1.65625 -3.765625 C 1.882812 -3.597656 2.285156 -3.445312 2.859375 -3.3125 C 3.609375 -3.125 4.140625 -2.890625 4.453125 -2.609375 C 4.773438 -2.335938 4.9375 -1.984375 4.9375 -1.546875 C 4.9375 -1.035156 4.742188 -0.628906 4.359375 -0.328125 C 3.984375 -0.0351562 3.472656 0.109375 2.828125 0.109375 Z M 2.828125 0.109375 "/></g></g></g></svg>